<?xml version="1.0" encoding="utf-8"?>
<!-- Generator: Adobe Illustrator 16.0.4, SVG Export Plug-In . SVG Version: 6.00 Build 0)  -->
<!DOCTYPE svg PUBLIC "-//W3C//DTD SVG 1.1//EN" "http://www.w3.org/Graphics/SVG/1.1/DTD/svg11.dtd">
<svg version="1.1" id="Layer_1" xmlns="http://www.w3.org/2000/svg" xmlns:xlink="http://www.w3.org/1999/xlink" x="0px" y="0px"
	 width="184px" height="115px" viewBox="0 0 184 115" enable-background="new 0 0 184 115" xml:space="preserve">
<g>
	<rect y="70" fill="#FFFFFF" width="184" height="45"/>
	<path fill="#DA2128" d="M10.391,104.745h1.463v-4.762h3.987V98.68h-3.987v-2.853h3.987v-1.302h-5.45V104.745L10.391,104.745z
		 M18.473,95.879c-1.034,0.999-1.55,2.264-1.55,3.789c0,1.488,0.513,2.725,1.539,3.713c1.026,0.987,2.309,1.481,3.849,1.481
		c1.613,0,2.95-0.494,4.01-1.481c1.06-0.988,1.59-2.234,1.59-3.742c0-1.507-0.525-2.761-1.575-3.76c-1.05-1-2.365-1.5-3.944-1.5
		S19.506,94.879,18.473,95.879L18.473,95.879z M25.26,96.877c0.763,0.739,1.144,1.65,1.144,2.733c0,1.111-0.381,2.041-1.144,2.787
		c-0.763,0.745-1.714,1.118-2.854,1.118c-1.135,0-2.081-0.365-2.836-1.097s-1.133-1.648-1.133-2.751c0-1.136,0.376-2.07,1.129-2.802
		c0.752-0.731,1.714-1.097,2.883-1.097C23.561,95.77,24.498,96.138,25.26,96.877L25.26,96.877z M31.188,104.745v-4.448h0.381
		c0.479,0,0.819,0.056,1.022,0.165c0.203,0.109,0.43,0.288,0.681,0.536c0.251,0.249,0.528,0.583,0.83,1.002l0.49,0.798l0.453,0.747
		l0.285,0.402c0.043,0.059,0.073,0.1,0.087,0.125l0.446,0.673h1.741l-0.542-0.731c-0.214-0.293-0.5-0.729-0.856-1.31
		c-0.566-0.922-1.004-1.568-1.317-1.939c-0.312-0.369-0.631-0.662-0.958-0.877c0.556-0.215,0.982-0.539,1.28-0.973
		c0.297-0.434,0.446-0.949,0.446-1.544c0-0.873-0.304-1.566-0.911-2.078c-0.607-0.512-1.428-0.768-2.461-0.768h-2.561v10.22H31.188
		L31.188,104.745z M33.167,95.93c0.31,0.107,0.55,0.291,0.721,0.553c0.17,0.261,0.256,0.552,0.256,0.874
		c0,0.326-0.077,0.617-0.23,0.875c-0.153,0.256-0.368,0.446-0.644,0.573c-0.276,0.127-0.784,0.19-1.525,0.19h-0.556V95.77h0.439
		C32.344,95.77,32.857,95.823,33.167,95.93L33.167,95.93z M46.082,104.731c0.907,0,1.521-0.026,1.844-0.077
		c0.322-0.051,0.675-0.153,1.061-0.305c0.659-0.248,1.236-0.616,1.734-1.104c0.488-0.473,0.863-1.021,1.126-1.646
		c0.264-0.624,0.395-1.276,0.395-1.96c0-0.956-0.239-1.839-0.717-2.647c-0.478-0.811-1.122-1.423-1.931-1.84
		c-0.81-0.417-1.91-0.626-3.3-0.626h-3.445v10.206H46.082L46.082,104.731z M47.669,95.908c0.317,0.054,0.652,0.163,1.006,0.329
		s0.667,0.378,0.94,0.636c0.741,0.693,1.112,1.588,1.112,2.685c0,1.117-0.361,2.041-1.083,2.773
		c-0.225,0.224-0.472,0.413-0.743,0.567c-0.271,0.153-0.608,0.279-1.013,0.38c-0.405,0.1-0.973,0.149-1.705,0.149h-1.873v-7.601
		h1.829C46.842,95.827,47.352,95.854,47.669,95.908L47.669,95.908z M54.041,104.731h5.933v-1.304h-4.47v-3.175h4.185v-1.309h-4.185
		v-3.117h4.331v-1.302h-5.794V104.731L54.041,104.731z M64.922,101.702l-3.074-7.177h-1.473l4.405,10.264h0.332l4.321-10.264h-1.457
		L64.922,101.702L64.922,101.702z M70.521,104.731h5.933v-1.304h-4.47v-3.175h4.185v-1.309h-4.185v-3.117h4.331v-1.302h-5.794
		V104.731L70.521,104.731z M77.982,104.745h6.065v-1.331h-4.602v-8.889h-1.463V104.745L77.982,104.745z M86.394,95.879
		c-1.033,0.999-1.55,2.264-1.55,3.789c0,1.488,0.513,2.725,1.539,3.713c1.026,0.987,2.309,1.481,3.849,1.481
		c1.613,0,2.95-0.494,4.01-1.481c1.061-0.988,1.59-2.234,1.59-3.742c0-1.507-0.524-2.761-1.575-3.76c-1.051-1-2.365-1.5-3.944-1.5
		S87.427,94.879,86.394,95.879L86.394,95.879z M93.182,96.877c0.763,0.739,1.144,1.65,1.144,2.733c0,1.111-0.381,2.041-1.144,2.787
		c-0.763,0.745-1.714,1.118-2.854,1.118c-1.135,0-2.081-0.365-2.836-1.097s-1.133-1.648-1.133-2.751c0-1.136,0.376-2.07,1.129-2.802
		s1.714-1.097,2.883-1.097C91.482,95.77,92.419,96.138,93.182,96.877L93.182,96.877z M98.992,104.745v-4.433h1.083
		c0.966,0,1.707-0.104,2.224-0.312c0.518-0.207,0.924-0.54,1.222-0.999c0.298-0.458,0.446-0.984,0.446-1.58
		c0-0.887-0.29-1.595-0.871-2.121c-0.58-0.526-1.357-0.791-2.333-0.791h-3.241v10.235H98.992L98.992,104.745z M102.453,97.386
		c0,0.521-0.161,0.923-0.483,1.203c-0.322,0.281-0.781,0.421-1.376,0.421h-1.602v-3.196h1.515
		C101.804,95.813,102.453,96.337,102.453,97.386L102.453,97.386L102.453,97.386z M109.962,98.723l-3.396-4.197h-1.386v10.22h1.463
		v-7.952l3.179,3.95h0.271l3.143-3.95v7.952h1.471v-10.22h-1.368L109.962,98.723L109.962,98.723z M116.878,104.731h5.933v-1.304
		h-4.47v-3.175h4.186v-1.309h-4.186v-3.117h4.331v-1.302h-5.794V104.731L116.878,104.731z M132.46,102.463l-6.892-7.938h-1.186
		v10.22h1.375v-7.871l6.833,7.871h1.259v-10.22h-1.39V102.463L132.46,102.463z M135.136,95.813h3.505v8.932h1.471v-8.932h3.562
		V94.51h-8.538V95.813L135.136,95.813z"/>
	<path fill="#DA2128" d="M9.25,89.763h1.503l1.277-3.028h4.36l1.362,3.028h1.498l-4.583-10.278h-1.028L9.25,89.763L9.25,89.763z
		 M12.611,85.432l1.529-3.701l1.649,3.701H12.611L12.611,85.432z M29.996,86.032h1.968v2.128l-0.139,0.044
		c-0.815,0.269-1.515,0.403-2.1,0.403c-1.205,0-2.19-0.369-2.956-1.105s-1.149-1.685-1.149-2.846c0-1.107,0.383-2.041,1.149-2.802
		c0.766-0.762,1.707-1.142,2.824-1.142c1.2,0,2.409,0.354,3.628,1.062v-1.493c-0.79-0.331-1.443-0.56-1.96-0.685
		c-0.517-0.124-1.063-0.186-1.639-0.186c-1.58,0-2.895,0.507-3.943,1.521c-1.048,1.016-1.573,2.285-1.573,3.812
		c0,1.448,0.506,2.667,1.518,3.654c1.012,0.987,2.364,1.481,4.057,1.481c1.239,0,2.487-0.272,3.746-0.819v-4.331h-3.431V86.032
		L29.996,86.032z M37.04,89.763v-4.447h0.381c0.479,0,0.819,0.054,1.021,0.164c0.203,0.108,0.43,0.288,0.682,0.536
		c0.251,0.248,0.528,0.582,0.83,1.002l0.489,0.799l0.453,0.746l0.285,0.402c0.044,0.059,0.073,0.101,0.088,0.124l0.446,0.674h1.741
		l-0.542-0.731c-0.215-0.293-0.5-0.729-0.856-1.311c-0.566-0.921-1.005-1.567-1.317-1.938c-0.312-0.371-0.632-0.663-0.958-0.878
		c0.556-0.215,0.983-0.539,1.28-0.974c0.297-0.434,0.446-0.948,0.446-1.544c0-0.873-0.304-1.564-0.911-2.076
		c-0.607-0.514-1.428-0.77-2.462-0.77h-2.561v10.221H37.04L37.04,89.763z M39.019,80.947c0.31,0.106,0.55,0.292,0.72,0.552
		c0.171,0.261,0.256,0.553,0.256,0.875c0,0.326-0.077,0.618-0.23,0.874s-0.368,0.447-0.644,0.574
		c-0.276,0.127-0.784,0.189-1.525,0.189H37.04v-3.226h0.439C38.196,80.786,38.709,80.84,39.019,80.947L39.019,80.947z
		 M43.426,89.763h1.504l1.277-3.028h4.36l1.362,3.028h1.498l-4.583-10.278h-1.028L43.426,89.763L43.426,89.763z M46.787,85.432
		l1.529-3.701l1.649,3.701H46.787L46.787,85.432z M62.636,87.48l-6.891-7.938H54.56v10.221h1.375v-7.872l6.833,7.872h1.258V79.542
		h-1.39V87.48L62.636,87.48z M69.432,89.748c0.907,0,1.521-0.026,1.843-0.077c0.322-0.051,0.676-0.151,1.061-0.304
		c0.658-0.248,1.236-0.616,1.734-1.104c0.487-0.473,0.863-1.021,1.126-1.646s0.395-1.278,0.395-1.961
		c0-0.956-0.239-1.839-0.717-2.648s-1.122-1.423-1.932-1.84s-1.909-0.626-3.299-0.626h-3.446v10.206H69.432L69.432,89.748z
		 M71.02,80.925c0.317,0.055,0.652,0.164,1.006,0.329c0.354,0.166,0.667,0.378,0.94,0.637c0.741,0.692,1.112,1.588,1.112,2.686
		c0,1.117-0.361,2.041-1.083,2.771c-0.224,0.226-0.472,0.414-0.742,0.567c-0.271,0.154-0.609,0.281-1.014,0.381
		c-0.405,0.101-0.973,0.15-1.704,0.15h-1.873v-7.602h1.829C70.193,80.845,70.703,80.872,71.02,80.925L71.02,80.925z M86.703,88.534
		c-1.185,0-2.158-0.361-2.919-1.083s-1.141-1.645-1.141-2.766c0-1.112,0.386-2.037,1.159-2.776s1.745-1.108,2.916-1.108
		c1.141,0,2.309,0.342,3.504,1.024v-1.573c-1.312-0.561-2.505-0.841-3.578-0.841c-1.556,0-2.864,0.507-3.925,1.521
		c-1.061,1.016-1.591,2.267-1.591,3.754c0,0.937,0.231,1.807,0.695,2.611c0.463,0.806,1.093,1.438,1.888,1.896
		s1.763,0.688,2.904,0.688c1.405,0,2.644-0.293,3.716-0.878v-1.61C89.151,88.153,87.942,88.534,86.703,88.534L86.703,88.534
		L86.703,88.534z M99.308,83.961h-5.743v-4.419h-1.463v10.221h1.463v-4.447h5.743v4.447h1.463V79.542h-1.463V83.961L99.308,83.961z
		 M101.867,89.763h1.504l1.276-3.028h4.36l1.362,3.028h1.498l-4.583-10.278h-1.028L101.867,89.763L101.867,89.763z M105.229,85.432
		l1.529-3.701l1.649,3.701H105.229L105.229,85.432z M112.957,89.763h6.065v-1.332h-4.603v-8.889h-1.463V89.763L112.957,89.763z
		 M120.272,89.763h6.064v-1.332h-4.602v-8.889h-1.463V89.763L120.272,89.763z M127.587,89.748h5.933v-1.302h-4.47v-3.175h4.186
		v-1.311h-4.186v-3.116h4.331v-1.303h-5.794V89.748L127.587,89.748z M143.169,87.48l-6.891-7.938h-1.186v10.221h1.375v-7.872
		l6.833,7.872h1.258V79.542h-1.39V87.48L143.169,87.48z M152.24,86.032h1.968v2.128l-0.139,0.044
		c-0.815,0.269-1.515,0.403-2.101,0.403c-1.204,0-2.189-0.369-2.955-1.105s-1.148-1.685-1.148-2.846
		c0-1.107,0.383-2.041,1.148-2.802c0.766-0.762,1.707-1.142,2.824-1.142c1.199,0,2.409,0.354,3.628,1.062v-1.493
		c-0.79-0.331-1.443-0.56-1.96-0.685c-0.517-0.124-1.063-0.186-1.639-0.186c-1.58,0-2.896,0.507-3.943,1.521
		c-1.049,1.016-1.573,2.285-1.573,3.812c0,1.448,0.506,2.667,1.519,3.654c1.012,0.987,2.364,1.481,4.056,1.481
		c1.239,0,2.488-0.272,3.746-0.819v-4.331h-3.431V86.032L152.24,86.032z M157.777,89.748h5.933v-1.302h-4.47v-3.175h4.185v-1.311
		h-4.185v-3.116h4.331v-1.303h-5.794V89.748L157.777,89.748z"/>
	<polygon points="0,0 0,70 184,70 184,0 0,0 	"/>
	<polygon fill="#FFFFFF" points="17.967,26.113 23.976,18.576 25.213,18.576 25.213,34.805 23.979,34.805 23.979,20.411 
		17.962,27.998 11.922,20.411 11.922,34.805 10.699,34.805 10.699,18.576 11.922,18.576 17.967,26.113 	"/>
	<path fill="#FFFFFF" d="M35.087,18.459l7.312,16.346h-1.283l-2.501-5.611H30.88l-2.493,5.611h-1.283l7.311-16.346H35.087
		L35.087,18.459z M38.148,28.148l-3.408-7.644l-3.396,7.644H38.148L38.148,28.148z"/>
	<polygon fill="#FFFFFF" points="54.581,18.576 47.009,26.682 55.306,34.805 53.75,34.805 45.467,26.696 45.467,34.805 
		44.245,34.805 44.245,18.576 45.467,18.576 45.467,26.65 53.055,18.576 54.581,18.576 	"/>
	<polygon fill="#FFFFFF" points="57.819,18.576 57.819,34.805 56.596,34.805 56.596,18.576 57.819,18.576 	"/>
	<polygon fill="#FFFFFF" points="75.673,18.576 75.673,34.805 74.666,34.805 62.642,20.621 62.642,34.805 61.419,34.805 
		61.419,18.576 62.455,18.576 74.45,32.761 74.45,18.576 75.673,18.576 	"/>
	<path fill="#FFFFFF" d="M92.553,19.749v1.417c-1.872-1.092-3.739-1.638-5.604-1.638c-2,0-3.665,0.682-4.993,2.045
		c-1.328,1.363-1.993,3.071-1.993,5.123c0,2.053,0.657,3.758,1.971,5.117s3.098,2.039,5.354,2.039c1.63,0,3.076-0.333,4.336-0.999
		v-4.38h-3.34v-1.045h4.574v6.215c-1.864,0.914-3.736,1.371-5.616,1.371c-2.453,0-4.5-0.797-6.142-2.393
		c-1.642-1.595-2.463-3.586-2.463-5.971c0-2.37,0.805-4.343,2.417-5.919c1.611-1.576,3.636-2.364,6.074-2.364
		C88.79,18.367,90.599,18.827,92.553,19.749L92.553,19.749z"/>
	<path fill="#FFFFFF" d="M107.284,18.459l7.312,16.346h-1.283l-2.501-5.611h-7.734l-2.493,5.611h-1.283l7.312-16.346H107.284
		L107.284,18.459z M110.345,28.148l-3.408-7.644l-3.396,7.644H110.345L110.345,28.148z"/>
	<polygon fill="#FFFFFF" points="117.732,18.576 117.732,33.759 125.555,33.759 125.555,34.805 116.509,34.805 116.509,18.576 
		117.732,18.576 	"/>
	<polygon fill="#FFFFFF" points="128.612,18.576 128.612,33.759 136.435,33.759 136.435,34.805 127.389,34.805 127.389,18.576 
		128.612,18.576 	"/>
	<polygon fill="#FFFFFF" points="24.341,41.994 17.714,58.386 17.353,58.386 10.699,41.994 11.938,41.994 17.543,55.726 
		23.107,41.994 24.341,41.994 	"/>
	<path fill="#FFFFFF" d="M32.985,41.784c2.338,0,4.32,0.808,5.945,2.423c1.625,1.613,2.438,3.583,2.438,5.907
		c0,2.315-0.813,4.281-2.438,5.896c-1.625,1.614-3.607,2.422-5.945,2.422c-2.331,0-4.305-0.808-5.923-2.422
		c-1.618-1.614-2.426-3.58-2.426-5.896c0-2.324,0.809-4.294,2.426-5.907C28.68,42.592,30.654,41.784,32.985,41.784L32.985,41.784z
		 M33.03,57.271c1.968,0,3.629-0.691,4.982-2.074c1.354-1.383,2.031-3.076,2.031-5.082c0-2.014-0.677-3.712-2.031-5.095
		c-1.354-1.383-3.015-2.073-4.982-2.073c-1.977,0-3.648,0.69-5.018,2.073c-1.369,1.383-2.053,3.081-2.053,5.095
		c0,2.006,0.685,3.699,2.053,5.082C29.382,56.579,31.054,57.271,33.03,57.271L33.03,57.271z"/>
	<polygon fill="#FFFFFF" points="45.557,41.994 45.557,58.223 44.334,58.223 44.334,41.994 45.557,41.994 	"/>
	<path fill="#FFFFFF" d="M62.323,43.144v1.371c-1.917-1.046-3.796-1.568-5.638-1.568c-1.962,0-3.604,0.685-4.925,2.056
		s-1.981,3.083-1.981,5.135c0,2.076,0.664,3.784,1.992,5.124c1.329,1.34,3.023,2.01,5.083,2.01c1.721,0,3.596-0.554,5.627-1.662
		v1.302c-1.872,1.015-3.74,1.521-5.604,1.521c-2.408,0-4.414-0.792-6.018-2.376c-1.604-1.584-2.406-3.557-2.406-5.919
		c0-2.377,0.818-4.363,2.457-5.959c1.638-1.596,3.589-2.394,5.854-2.394C58.546,41.784,60.398,42.237,62.323,43.144L62.323,43.144z"
		/>
	<polygon fill="#FFFFFF" points="73.474,41.994 73.474,43.039 66.07,43.039 66.07,49.533 73.282,49.533 73.282,50.59 66.07,50.59 
		66.07,57.177 73.655,57.177 73.655,58.223 64.847,58.223 64.847,41.994 73.474,41.994 	"/>
	<path fill="#FFFFFF" d="M83.607,42.807v1.383c-1.374-0.829-2.555-1.243-3.544-1.243c-0.951,0-1.745,0.296-2.383,0.888
		c-0.638,0.593-0.956,1.327-0.956,2.202c0,0.628,0.188,1.192,0.566,1.696c0.377,0.504,1.166,0.987,2.366,1.452
		c1.2,0.465,2.076,0.852,2.627,1.162c0.55,0.31,1.019,0.759,1.404,1.348c0.385,0.588,0.578,1.352,0.578,2.288
		c0,1.247-0.446,2.301-1.336,3.16c-0.891,0.859-1.978,1.289-3.261,1.289c-1.313,0-2.665-0.472-4.053-1.417v-1.476
		c1.532,1.154,2.86,1.731,3.985,1.731c0.936,0,1.726-0.312,2.372-0.936c0.645-0.623,0.968-1.389,0.968-2.294
		c0-0.69-0.2-1.312-0.6-1.866c-0.4-0.554-1.211-1.071-2.434-1.553c-1.222-0.48-2.096-0.868-2.62-1.163
		c-0.525-0.294-0.971-0.715-1.336-1.26c-0.367-0.546-0.55-1.248-0.55-2.107c0-1.191,0.445-2.208,1.336-3.048s1.962-1.26,3.215-1.26
		C81.18,41.784,82.399,42.125,83.607,42.807L83.607,42.807z"/>
	<path fill="#FFFFFF" d="M106.611,43.144v1.371c-1.917-1.046-3.798-1.568-5.639-1.568c-1.963,0-3.604,0.685-4.925,2.056
		c-1.321,1.371-1.981,3.083-1.981,5.135c0,2.076,0.664,3.784,1.993,5.124c1.327,1.34,3.022,2.01,5.082,2.01
		c1.722,0,3.598-0.554,5.627-1.662v1.302c-1.871,1.015-3.738,1.521-5.604,1.521c-2.407,0-4.413-0.792-6.018-2.376
		s-2.405-3.557-2.405-5.919c0-2.377,0.818-4.363,2.457-5.959c1.637-1.596,3.588-2.394,5.853-2.394
		C102.833,41.784,104.686,42.237,106.611,43.144L106.611,43.144z"/>
	<path fill="#FFFFFF" d="M116.804,41.784c2.34,0,4.321,0.808,5.946,2.423c1.626,1.613,2.438,3.583,2.438,5.907
		c0,2.315-0.812,4.281-2.438,5.896c-1.625,1.614-3.606,2.422-5.946,2.422c-2.33,0-4.304-0.808-5.922-2.422s-2.427-3.58-2.427-5.896
		c0-2.324,0.809-4.294,2.427-5.907C112.5,42.592,114.474,41.784,116.804,41.784L116.804,41.784z M116.85,57.271
		c1.97,0,3.629-0.691,4.984-2.074c1.353-1.383,2.03-3.076,2.03-5.082c0-2.014-0.678-3.712-2.03-5.095
		c-1.355-1.383-3.015-2.073-4.984-2.073c-1.976,0-3.647,0.69-5.017,2.073s-2.053,3.081-2.053,5.095c0,2.006,0.684,3.699,2.053,5.082
		S114.874,57.271,116.85,57.271L116.85,57.271z"/>
	<path fill="#FFFFFF" d="M139.838,41.994h1.223v8.852c0,2.425-0.615,4.295-1.845,5.611c-1.23,1.317-2.823,1.975-4.778,1.975
		c-1.947,0-3.536-0.65-4.767-1.951c-1.23-1.302-1.845-3.082-1.845-5.344v-9.143h1.233v9.096c0,1.937,0.5,3.45,1.5,4.543
		c1,1.091,2.293,1.638,3.878,1.638c1.601,0,2.899-0.552,3.899-1.656c1-1.104,1.501-2.669,1.501-4.699V41.994L139.838,41.994z"/>
	<polygon fill="#FFFFFF" points="158.575,41.994 158.575,58.223 157.568,58.223 145.544,44.037 145.544,58.223 144.322,58.223 
		144.322,41.994 145.356,41.994 157.352,56.178 157.352,41.994 158.575,41.994 	"/>
	<polygon fill="#FFFFFF" points="173.553,41.994 173.553,43.039 167.62,43.039 167.62,58.223 166.386,58.223 166.386,43.039 
		160.454,43.039 160.454,41.994 173.553,41.994 	"/>
</g>
</svg>
